<svg width="1080" height="1080" viewBox="0 0 1080 1080" fill="none" xmlns="http://www.w3.org/2000/svg">
<g clip-path="url(#clip0_847_369)">
<path d="M67.5817 543.483C63.4877 538.976 57.4211 535.772 49.3074 533.909L33.8617 530.184C29.2094 529.104 25.8597 527.502 23.8127 525.416C21.8029 523.329 20.798 520.536 20.798 516.959C20.798 512.973 22.1751 509.732 24.9293 507.125C27.7207 504.554 31.6658 503.288 36.8392 503.288C42.6453 503.288 46.9999 504.852 49.8285 508.019C52.6571 511.222 54.4064 514.873 55.0763 519.045L73.2017 516.214C71.713 507.497 68.0283 500.605 62.0734 495.539C56.1184 490.51 47.8559 487.977 37.2858 487.977C30.4376 487.977 24.4082 489.206 19.1604 491.665C13.9126 494.161 9.81855 497.625 6.87828 502.096C3.97524 506.566 2.52371 511.856 2.52371 518.002C2.52371 526.719 4.83127 533.201 9.48359 537.448C14.1359 541.732 20.3514 544.787 28.0556 546.687L43.5013 550.263C47.9676 551.232 51.0567 552.796 52.806 554.845C54.518 556.931 55.3741 559.762 55.3741 563.339C55.3741 567.585 53.8109 570.901 50.6473 573.211C47.4465 575.558 43.2408 576.712 37.993 576.712C31.8519 576.712 27.1996 575.26 24.036 572.317C20.8724 569.411 18.7138 565.35 17.5228 560.209L-0.900391 563.19C0.886099 573.099 5.05457 580.363 11.5678 585.02C18.1183 589.713 26.7158 592.023 37.4347 592.023C44.5435 592.023 50.8334 590.868 56.2673 588.596C61.7384 586.324 65.9813 583.008 69.0332 578.649C72.1224 574.291 73.6483 568.927 73.6483 562.594C73.6483 554.361 71.6385 547.991 67.5817 543.483Z" fill="#FF5A00"/>
<path d="M113.919 489.467V506.417H143.024V590.533H161.149V506.417H190.254V489.467H113.919Z" fill="#FF5A00"/>
<path d="M286.464 551.604C292.121 549.294 296.475 545.681 299.527 540.726C302.616 535.772 304.142 529.476 304.142 521.877C304.142 510.552 301.239 502.319 295.396 497.178C289.553 492.037 281.625 489.467 271.613 489.467H233.613V590.533H251.701V554.249H268.785L287.655 590.533H307.418L286.464 551.604ZM269.529 538.491H251.701V505.374H269.529C274.777 505.374 278.834 506.529 281.625 508.838C284.454 511.185 285.868 515.581 285.868 521.988C285.868 533.015 280.434 538.491 269.529 538.491Z" fill="#FF5A00"/>
<path d="M401.097 489.467V552.2C401.097 559.725 399.832 565.574 397.301 569.783C394.77 574.03 390.155 576.116 383.418 576.116C377.464 576.116 373.034 574.216 370.131 570.379C367.191 566.58 365.74 560.507 365.74 552.2V489.467H347.614V552.498C347.614 566.244 350.703 576.303 356.882 582.598C363.097 588.894 371.881 592.023 383.27 592.023C394.658 592.023 403.963 588.931 410.067 582.747C416.171 576.526 419.185 566.468 419.185 552.498V489.467H401.097Z" fill="#FF5A00"/>
<path d="M511.861 538.491L540.109 489.467H521.24L497.308 531.227H485.287V489.467H467.161V590.533H485.287V547.879H497.159L521.091 590.533H541.3L511.861 538.491Z" fill="#FF5A00"/>
<path d="M580.604 489.467V506.417H609.708V590.533H627.834V506.417H656.939V489.467H580.604Z" fill="#FF5A00"/>
<path d="M752.702 489.467V552.2C752.702 559.725 751.436 565.574 748.906 569.783C746.375 574.03 741.76 576.116 735.023 576.116C729.068 576.116 724.639 574.216 721.736 570.379C718.796 566.58 717.344 560.507 717.344 552.2V489.467H699.219V552.498C699.219 566.244 702.308 576.303 708.486 582.598C714.702 588.894 723.485 592.023 734.874 592.023C746.263 592.023 755.568 588.931 761.672 582.747C767.775 576.526 770.79 566.468 770.79 552.498V489.467H752.702Z" fill="#FF5A00"/>
<path d="M871.65 551.604C877.307 549.294 881.662 545.681 884.714 540.726C887.803 535.772 889.329 529.476 889.329 521.877C889.329 510.552 886.389 502.319 880.545 497.178C874.702 492.037 866.812 489.467 856.8 489.467H818.763V590.533H836.888V554.249H853.971L872.841 590.533H892.604L871.65 551.604ZM854.716 538.491H836.888V505.374H854.716C859.964 505.374 863.983 506.529 866.812 508.838C869.64 511.185 871.055 515.581 871.055 521.988C871.055 533.015 865.621 538.491 854.716 538.491Z" fill="#FF5A00"/>
<path d="M983.606 489.467H961.201L931.352 590.533H949.03L955.544 566.021H988.817L995.516 590.533H1013.6L983.606 489.467ZM959.861 550.412L972.18 504.629L984.5 550.412H959.861Z" fill="#FF5A00"/>
<path d="M1080 507.87V518.598H1061.58V537.038H1050.89V518.598H1032.47V507.87H1050.89V489.467H1061.58V507.87H1080Z" fill="#212121"/>
</g>
<defs>
<clipPath id="clip0_847_369">
<rect width="1080" height="1080" fill="white"/>
</clipPath>
</defs>
</svg>
